<svg xmlns="http://www.w3.org/2000/svg" version="1.1" xmlns:xlink="http://www.w3.org/1999/xlink" xmlns:svgjs="http://svgjs.dev/svgjs" width="1440" height="560" preserveAspectRatio="none" viewBox="0 0 1440 560">
    <g mask="url(&quot;#SvgjsMask1009&quot;)" fill="none">
        <rect width="1440" height="560" x="0" y="0" fill="rgba(255, 218, 185, 1)"></rect>
        <path d="M 0,276 C 57.6,245.4 172.8,138.4 288,123 C 403.2,107.6 460.8,200.6 576,199 C 691.2,197.4 748.8,112.4 864,115 C 979.2,117.6 1036.8,216.8 1152,212 C 1267.2,207.2 1382.4,115.2 1440,91L1440 560L0 560z" fill="rgba(255, 199, 149, 1)"></path>
        <path d="M 0,440 C 96,431.6 288,383.4 480,398 C 672,412.6 768,523.4 960,513 C 1152,502.6 1344,379.4 1440,346L1440 560L0 560z" fill="rgba(255, 179, 113, 1)"></path>
    </g>
    <defs>
        <mask id="SvgjsMask1009">
            <rect width="1440" height="560" fill="#ffffff"></rect>
        </mask>
    </defs>
</svg>