<svg xmlns="http://www.w3.org/2000/svg" xmlns:xlink="http://www.w3.org/1999/xlink" version="1.1" style="shape-rendering:geometricPrecision; text-rendering:geometricPrecision; image-rendering:optimizeQuality; fill-rule:evenodd; clip-rule:evenodd" viewBox="148.18 1.39 477.57 477.11">
<g><path style="opacity:0.994" fill="#F4E7D6" d="M 407.5,478.5 C 393.833,478.5 380.167,478.5 366.5,478.5C 301.886,471.695 248.219,444.028 205.5,395.5C 220.483,396.951 235.483,397.785 250.5,398C 258.289,394.204 263.123,388.038 265,379.5C 266.05,375.197 266.884,370.863 267.5,366.5C 355.167,366.667 442.834,366.5 530.5,366C 536.544,363.068 538.044,358.568 535,352.5C 534.097,351.299 532.931,350.465 531.5,350C 504.124,349.825 476.791,349.325 449.5,348.5C 440.667,335.5 431.833,322.5 423,309.5C 418.631,311.051 414.131,312.218 409.5,313C 417.855,324.829 425.522,336.996 432.5,349.5C 418.829,349.667 405.163,349.5 391.5,349C 386.428,338.797 381.928,328.297 378,317.5C 373.218,316.198 368.385,316.198 363.5,317.5C 368.076,327.979 372.076,338.646 375.5,349.5C 339.832,349.667 304.165,349.5 268.5,349C 266.697,341.294 264.197,333.794 261,326.5C 255.559,317.681 247.726,314.514 237.5,317C 212.846,319.699 188.18,322.199 163.5,324.5C 137.448,250.132 144.615,179.132 185,111.5C 227.974,46.5708 288.474,10.0708 366.5,2C 444.364,-2.96426 510.197,22.5357 564,78.5C 622.341,147.224 639.341,225.224 615,312.5C 587.405,392.429 533.238,444.929 452.5,470C 437.563,473.931 422.563,476.764 407.5,478.5 Z"/></g>
<g><path style="opacity:1" fill="#231f20" d="M 444.5,86.5 C 469.56,84.2939 490.893,91.9606 508.5,109.5C 506.268,111.645 503.601,113.145 500.5,114C 469.503,125.333 438.503,125.333 407.5,114C 404.583,112.767 401.916,111.267 399.5,109.5C 412.03,96.9622 427.03,89.2956 444.5,86.5 Z"/></g>
<g><path style="opacity:1" fill="#242020" d="M 365.5,98.5 C 405.188,130.403 449.521,138.903 498.5,124C 514.286,118.528 528.452,110.361 541,99.5C 541.5,100 542,100.5 542.5,101C 536.833,107.333 531.167,113.667 525.5,120C 509.457,133.712 493.124,147.045 476.5,160C 467.445,168.216 460.111,177.716 454.5,188.5C 447.26,174.753 437.593,162.919 425.5,153C 405.003,138.825 386.169,122.659 369,104.5C 367.579,102.595 366.412,100.595 365.5,98.5 Z"/></g>
<g><path style="opacity:1" fill="#231f20" d="M 383.5,132.5 C 384.552,132.351 385.552,132.517 386.5,133C 391.354,137.355 396.354,141.522 401.5,145.5C 395.461,154.846 394.961,164.513 400,174.5C 411.702,187.088 424.035,187.755 437,176.5C 443.781,184.728 448.447,194.061 451,204.5C 453.592,205.982 455.925,205.648 458,203.5C 460.588,193.653 465.255,184.986 472,177.5C 486.748,188.324 499.415,186.324 510,171.5C 513.691,162.694 512.857,154.361 507.5,146.5C 513.122,142.05 518.622,137.384 524,132.5C 537.692,172.425 527.192,204.258 492.5,228C 455.671,245.833 423.171,240 395,210.5C 377.205,186.611 373.371,160.611 383.5,132.5 Z"/></g>
<g><path style="opacity:1" fill="#242021" d="M 407.5,151.5 C 410.14,151.954 412.473,153.121 414.5,155C 420.167,160 425.833,165 431.5,170C 424.362,176.497 416.695,177.164 408.5,172C 402.536,165.34 402.203,158.507 407.5,151.5 Z"/></g>
<g><path style="opacity:1" fill="#242021" d="M 499.5,151.5 C 501.074,151.937 502.241,152.937 503,154.5C 505.774,170.061 499.274,176.894 483.5,175C 480.597,174.044 479.097,172.211 479,169.5C 485.73,163.262 492.564,157.262 499.5,151.5 Z"/></g>
<g><path style="opacity:1" fill="#241f20" d="M 368.5,159.5 C 370.311,192.277 384.978,217.777 412.5,236C 374.853,292.551 323.52,310.551 258.5,290C 250.771,287.302 243.438,283.802 236.5,279.5C 280.819,239.847 324.819,199.847 368.5,159.5 Z"/></g>
<g><path style="opacity:1" fill="#F4E7D6" d="M 353.5,194.5 C 355.288,194.215 356.955,194.548 358.5,195.5C 364.656,212.155 374.822,225.822 389,236.5C 389.667,238.167 389.667,239.833 389,241.5C 365.727,268.97 336.06,283.636 300,285.5C 291.778,284.8 283.611,283.634 275.5,282C 260.631,280.307 258.965,274.974 270.5,266C 298.359,242.302 326.026,218.468 353.5,194.5 Z"/></g>
<g><path style="opacity:1" fill="#231f20" d="M 353.5,205.5 C 359.733,218.603 368.4,229.936 379.5,239.5C 351.372,270.82 316.705,281.987 275.5,273C 301.397,250.261 327.397,227.761 353.5,205.5 Z"/></g>
<g><path style="opacity:1" fill="#231f20" d="M 501.5,231.5 C 502.239,231.369 502.906,231.536 503.5,232C 479.111,279.897 439.778,305.231 385.5,308C 366.702,309.198 348.035,308.198 329.5,305C 360.387,298.309 385.887,282.809 406,258.5C 411.025,252.309 415.858,245.976 420.5,239.5C 446.019,249.593 471.019,248.426 495.5,236C 497.747,234.723 499.747,233.223 501.5,231.5 Z"/></g>
<g><path style="opacity:1" fill="#242020" d="M 205.5,395.5 C 189.206,393.537 172.873,391.704 156.5,390C 151.321,388.479 149.821,385.313 152,380.5C 153.739,379.106 155.739,378.439 158,378.5C 170.154,380.017 182.321,381.35 194.5,382.5C 202.487,383.499 210.487,384.499 218.5,385.5C 229.471,383.893 232.971,377.893 229,367.5C 227.786,365.951 226.286,364.785 224.5,364C 210.504,363.5 196.504,363.333 182.5,363.5C 172.828,363.666 163.161,363.5 153.5,363C 149.063,358.414 149.729,354.748 155.5,352C 162.158,351.5 168.825,351.334 175.5,351.5C 192.17,351.667 208.837,351.5 225.5,351C 227.667,350.167 229.167,348.667 230,346.5C 232.292,336.411 228.292,331.078 218,330.5C 201.183,332.398 184.349,334.065 167.5,335.5C 162.919,336.607 158.252,336.773 153.5,336C 150.136,333.271 149.803,330.271 152.5,327C 156.091,325.844 159.758,325.011 163.5,324.5C 188.18,322.199 212.846,319.699 237.5,317C 247.726,314.514 255.559,317.681 261,326.5C 264.197,333.794 266.697,341.294 268.5,349C 304.165,349.5 339.832,349.667 375.5,349.5C 372.076,338.646 368.076,327.979 363.5,317.5C 368.385,316.198 373.218,316.198 378,317.5C 381.928,328.297 386.428,338.797 391.5,349C 405.163,349.5 418.829,349.667 432.5,349.5C 425.522,336.996 417.855,324.829 409.5,313C 414.131,312.218 418.631,311.051 423,309.5C 431.833,322.5 440.667,335.5 449.5,348.5C 476.791,349.325 504.124,349.825 531.5,350C 532.931,350.465 534.097,351.299 535,352.5C 538.044,358.568 536.544,363.068 530.5,366C 442.834,366.5 355.167,366.667 267.5,366.5C 266.884,370.863 266.05,375.197 265,379.5C 263.123,388.038 258.289,394.204 250.5,398C 235.483,397.785 220.483,396.951 205.5,395.5 Z"/></g>
<g><path style="opacity:0.991" fill="#F4E7D6" d="M 175.5,351.5 C 172.833,346.167 170.167,340.833 167.5,335.5C 184.349,334.065 201.183,332.398 218,330.5C 228.292,331.078 232.292,336.411 230,346.5C 229.167,348.667 227.667,350.167 225.5,351C 208.837,351.5 192.17,351.667 175.5,351.5 Z"/></g>
<g><path style="opacity:0.983" fill="#F4E7D6" d="M 182.5,363.5 C 196.504,363.333 210.504,363.5 224.5,364C 226.286,364.785 227.786,365.951 229,367.5C 232.971,377.893 229.471,383.893 218.5,385.5C 210.487,384.499 202.487,383.499 194.5,382.5C 190.25,376.335 186.25,370.002 182.5,363.5 Z"/></g>
</svg>